<svg width="70" height="68" viewBox="0 0 70 68" fill="none" xmlns="http://www.w3.org/2000/svg">
<g clip-path="url(#clip0)">
<path d="M67.0565 11.1696V60.8738H53.8998L53.8344 60.8564L66.3184 19.0855L38.2554 11.1696H67.0565Z" fill="#00ACEA"/>
<path d="M35.3863 10.3613L38.2554 11.1695L66.3184 19.0855L53.8344 60.8564L52.0528 66.8182L2.91614 52.9601L17.1818 5.22742L29.724 8.76394L35.3863 10.3613Z" fill="#00EFD1"/>
<path d="M32.8154 0H32.3008C30.2119 0 28.4445 1.63318 28.4445 3.66238V7.1914L17.4867 4.09189C17.1794 4.00472 16.8484 4.04051 16.5679 4.19176C16.288 4.34359 16.0818 4.5976 15.9962 4.8978L1.73891 52.6299C1.5529 53.2586 1.92611 53.9139 2.57268 54.0951L51.7111 67.9532C52.0219 68.0403 52.3559 68.0045 52.6394 67.8539C52.9216 67.7055 53.1314 67.4538 53.2217 67.1548L54.7431 62.0705H67.0565C67.7376 62.0659 68.2908 61.5353 68.3039 60.8738V11.1696C68.3039 10.5166 67.7286 10.0496 67.0565 10.0496H38.429L36.6598 9.47346V3.66238C36.6598 1.63318 34.9043 0 32.8154 0V0ZM30.8787 3.66238C30.8787 2.93671 31.5544 2.36461 32.3008 2.36461H32.8154C33.5619 2.36461 34.2257 2.93671 34.2257 3.66238V8.78647L30.8787 7.87781V3.66238ZM55.4497 59.7065L65.8697 24.9295V59.7065H55.4497ZM65.8697 17.7196L46.8119 12.4142H65.8697V17.7196ZM37.9441 12.3051L64.8244 19.8914L52.6726 60.5268L51.2273 65.353L4.42623 52.1543L18.0405 6.69204L34.2257 11.2487V19.3158C34.2114 20.0472 33.5963 20.6326 32.8434 20.6315C32.0952 20.6315 31.4884 20.0426 31.4872 19.3158V14.4036C31.4872 13.7507 30.9423 13.2213 30.2702 13.2213C29.598 13.2213 29.0531 13.7507 29.0531 14.4036V19.3158C29.0454 20.2909 29.4405 21.2284 30.1495 21.9183C31.2394 22.9707 32.8731 23.2853 34.294 22.7173C35.7155 22.1492 36.6479 20.8087 36.6598 19.3158V11.9351L37.9441 12.3051Z" fill="#083863"/>
</g>
<defs>
<clipPath id="clip0">
<rect width="70" height="68" fill="white"/>
</clipPath>
</defs>
</svg>
